<svg width="53" height="35" viewBox="0 0 53 35" fill="none" xmlns="http://www.w3.org/2000/svg">
<line x1="38" y1="13.5" x2="39" y2="13.5" stroke="black"/>
<line x1="38" y1="16.5" x2="39" y2="16.5" stroke="black"/>
<line x1="38" y1="15.5" x2="39" y2="15.5" stroke="black"/>
<line x1="38" y1="14.5" x2="39" y2="14.5" stroke="black"/>
<line x1="44" y1="7.5" x2="45" y2="7.5" stroke="black"/>
<line x1="43" y1="8.5" x2="44" y2="8.5" stroke="black"/>
<line x1="42" y1="9.5" x2="43" y2="9.5" stroke="black"/>
<line x1="41" y1="10.5" x2="42" y2="10.5" stroke="black"/>
<line x1="40" y1="11.5" x2="41" y2="11.5" stroke="black"/>
<line x1="39" y1="12.5" x2="40" y2="12.5" stroke="black"/>
<line x1="49" y1="8.5" x2="50" y2="8.5" stroke="black"/>
<line x1="46" y1="5.5" x2="47" y2="5.5" stroke="black"/>
<line x1="45" y1="6.5" x2="46" y2="6.5" stroke="black"/>
<line x1="48" y1="9.5" x2="49" y2="9.5" stroke="black"/>
<line x1="47" y1="10.5" x2="48" y2="10.5" stroke="black"/>
<line x1="46" y1="11.5" x2="47" y2="11.5" stroke="black"/>
<line x1="45" y1="12.5" x2="46" y2="12.5" stroke="black"/>
<line x1="50" y1="6.5" x2="51" y2="6.5" stroke="black"/>
<line x1="51" y1="6.5" x2="52" y2="6.5" stroke="black"/>
<line x1="50" y1="7.5" x2="51" y2="7.5" stroke="black"/>
<line x1="48" y1="3.5" x2="49" y2="3.5" stroke="black"/>
<line x1="47" y1="4.5" x2="48" y2="4.5" stroke="black"/>
<line x1="44" y1="13.5" x2="45" y2="13.5" stroke="black"/>
<line x1="43" y1="14.5" x2="44" y2="14.5" stroke="black"/>
<line x1="51" y1="3.5" x2="52" y2="3.5" stroke="black"/>
<line x1="42" y1="15.5" x2="43" y2="15.5" stroke="black"/>
<line x1="39" y1="16.5" x2="42" y2="16.5" stroke="black"/>
<line x1="49" y1="2.5" x2="51" y2="2.5" stroke="black"/>
<line x1="52.5" y1="4" x2="52.5" y2="6" stroke="black"/>
<line x1="49" y1="5.5" x2="50" y2="5.5" stroke="black"/>
<line x1="48" y1="4.5" x2="49" y2="4.5" stroke="black"/>
<line x1="24" y1="11.5" x2="38" y2="11.5" stroke="black"/>
<line x1="22" y1="22.5" x2="44" y2="22.5" stroke="black"/>
<line x1="44" y1="21.5" x2="45" y2="21.5" stroke="black"/>
<line x1="45.5" y1="21" x2="45.5" y2="12" stroke="black"/>
<line x1="45.5" y1="6" x2="45.5" y2="2" stroke="black"/>
<line x1="45" y1="1.5" x2="44" y2="1.5" stroke="black"/>
<line x1="44" y1="0.5" x2="18" y2="0.5" stroke="black"/>
<line x1="17.5" y1="1" x2="17.5" y2="2" stroke="black"/>
<line x1="16.5" y1="2" x2="16.5" y2="11" stroke="black"/>
<line x1="24" y1="7.5" x2="38" y2="7.5" stroke="black"/>
<line x1="1" y1="16.5" x2="4" y2="16.5" stroke="black"/>
<line x1="21" y1="16.5" x2="24" y2="16.5" stroke="black"/>
<line x1="1" y1="28.5" x2="4" y2="28.5" stroke="black"/>
<line x1="21" y1="28.5" x2="24" y2="28.5" stroke="black"/>
<line x1="11" y1="32.5" x2="14" y2="32.5" stroke="black"/>
<line x1="11" y1="12.5" x2="14" y2="12.5" stroke="black"/>
<line x1="14" y1="11.5" x2="15" y2="11.5" stroke="black"/>
<line x1="4" y1="15.5" x2="5" y2="15.5" stroke="black"/>
<line x1="5" y1="14.5" x2="6" y2="14.5" stroke="black"/>
<line x1="20" y1="15.5" x2="21" y2="15.5" stroke="black"/>
<line x1="1" y1="20.5" x2="2" y2="20.5" stroke="black"/>
<line x1="23" y1="20.5" x2="24" y2="20.5" stroke="black"/>
<line x1="1" y1="24.5" x2="2" y2="24.5" stroke="black"/>
<line x1="4" y1="29.5" x2="5" y2="29.5" stroke="black"/>
<line x1="17" y1="33.5" x2="18" y2="33.5" stroke="black"/>
<line x1="15" y1="34.5" x2="17" y2="34.5" stroke="black"/>
<line x1="24.5" y1="18" x2="24.5" y2="20" stroke="black"/>
<line x1="0.5" y1="25" x2="0.5" y2="27" stroke="black"/>
<line x1="24.5" y1="25" x2="24.5" y2="27" stroke="black"/>
<line x1="0.5" y1="18" x2="0.5" y2="20" stroke="black"/>
<line x1="18.5" y1="12" x2="18.5" y2="14" stroke="black"/>
<line x1="6.5" y1="12" x2="6.5" y2="14" stroke="black"/>
<line x1="17" y1="11.5" x2="19" y2="11.5" stroke="black"/>
<line x1="6" y1="11.5" x2="8" y2="11.5" stroke="black"/>
<line x1="8" y1="10.5" x2="10" y2="10.5" stroke="black"/>
<line x1="22.5" y1="21" x2="22.5" y2="24" stroke="black"/>
<line x1="6.5" y1="31" x2="6.5" y2="34" stroke="black"/>
<line x1="18.5" y1="31" x2="18.5" y2="34" stroke="black"/>
<line x1="2.5" y1="21" x2="2.5" y2="24" stroke="black"/>
<line x1="7" y1="33.5" x2="8" y2="33.5" stroke="black"/>
<line x1="5" y1="30.5" x2="6" y2="30.5" stroke="black"/>
<line x1="20" y1="29.5" x2="21" y2="29.5" stroke="black"/>
<line x1="19" y1="30.5" x2="20" y2="30.5" stroke="black"/>
<line x1="14" y1="33.5" x2="15" y2="33.5" stroke="black"/>
<line x1="10" y1="33.5" x2="11" y2="33.5" stroke="black"/>
<line x1="23" y1="24.5" x2="24" y2="24.5" stroke="black"/>
<line x1="1" y1="17.5" x2="2" y2="17.5" stroke="black"/>
<line x1="23" y1="17.5" x2="24" y2="17.5" stroke="black"/>
<line x1="1" y1="27.5" x2="2" y2="27.5" stroke="black"/>
<line x1="23" y1="27.5" x2="24" y2="27.5" stroke="black"/>
<line x1="19" y1="14.5" x2="20" y2="14.5" stroke="black"/>
<line x1="10" y1="11.5" x2="11" y2="11.5" stroke="black"/>
<line x1="15" y1="10.5" x2="17" y2="10.5" stroke="black"/>
<line x1="8" y1="34.5" x2="10" y2="34.5" stroke="black"/>
<line x1="15" y1="10.5" x2="17" y2="10.5" stroke="black"/>
<line x1="10" y1="16.5" x2="15" y2="16.5" stroke="black"/>
<line x1="6.5" y1="20" x2="6.5" y2="25" stroke="black"/>
<line x1="18.5" y1="20" x2="18.5" y2="25" stroke="black"/>
<line x1="10" y1="28.5" x2="15" y2="28.5" stroke="black"/>
<line x1="15" y1="17.5" x2="17" y2="17.5" stroke="black"/>
<line x1="8" y1="27.5" x2="10" y2="27.5" stroke="black"/>
<line x1="8" y1="17.5" x2="10" y2="17.5" stroke="black"/>
<line x1="15" y1="27.5" x2="17" y2="27.5" stroke="black"/>
<line x1="17.5" y1="18" x2="17.5" y2="20" stroke="black"/>
<line x1="7.5" y1="25" x2="7.5" y2="27" stroke="black"/>
<line x1="7.5" y1="18" x2="7.5" y2="20" stroke="black"/>
<line x1="17.5" y1="25" x2="17.5" y2="27" stroke="black"/>
</svg>
